<svg width="14" height="16" viewBox="0 0 14 16" fill="none" xmlns="http://www.w3.org/2000/svg">
<path d="M3.59518 1.82153C4.24605 2.4724 4.24605 3.52768 3.59518 4.17855C2.94431 4.82943 1.88903 4.82943 1.23816 4.17855C0.587281 3.52768 0.587281 2.4724 1.23816 1.82153C1.88903 1.17066 2.9443 1.17066 3.59518 1.82153" stroke="#4E2D2D" stroke-width="1.3" stroke-linecap="round" stroke-linejoin="round"/>
<path d="M7.195 13H4.18917C2.98 13 2 11.8808 2 10.5008V10.4983C2 9.11833 2.98 7.99917 4.18917 7.99917H9.81C11.0192 7.99917 11.9992 6.88 11.9992 5.5C12 4.1175 11.0183 2.99834 9.80833 3L6.375 3.00417" stroke="#4E2D2D" stroke-width="1.3" stroke-linecap="round" stroke-linejoin="round"/>
<path d="M10.616 14.82L13.0235 13.3958C13.3243 13.2175 13.3243 12.7817 13.0235 12.6042L10.616 11.18C10.3068 10.9967 9.91602 11.22 9.91602 11.5792V14.4208C9.91602 14.78 10.3068 15.0033 10.616 14.82Z" stroke="#4E2D2D" stroke-width="1.3" stroke-linecap="round" stroke-linejoin="round"/>
</svg>
