<svg width="18" height="18" viewBox="0 0 18 18" fill="none" xmlns="http://www.w3.org/2000/svg">
<path d="M4.875 14.5C5.63439 14.5 6.25 13.8844 6.25 13.125C6.25 12.3656 5.63439 11.75 4.875 11.75C4.11561 11.75 3.5 12.3656 3.5 13.125C3.5 13.8844 4.11561 14.5 4.875 14.5Z" stroke="#4E2D2D" stroke-width="1.4" stroke-linecap="round" stroke-linejoin="round"/>
<path d="M1.43806 8.42952L9.36798 2.07113C9.56281 1.91704 9.78624 1.80309 10.0254 1.73586C10.2645 1.66864 10.5146 1.64947 10.7612 1.67947C12.5498 1.88942 14.199 2.74917 15.3953 4.09535C16.5916 5.44152 17.2516 7.18029 17.25 8.98122V15.4125C17.2506 15.8992 17.0577 16.3663 16.7139 16.7109C16.3701 17.0555 15.9035 17.2494 15.4167 17.25H2.58333C2.09655 17.2494 1.62993 17.0555 1.28611 16.7109C0.942293 16.3663 0.749449 15.8992 0.750001 15.4125V9.86439C0.749921 9.58896 0.811708 9.31703 0.930799 9.06868C1.04989 8.82033 1.22324 8.6019 1.43806 8.42952V8.42952Z" stroke="#4E2D2D" stroke-width="1.4" stroke-linecap="round" stroke-linejoin="round"/>
<path d="M13.5833 17.25H11.2917C11.0486 17.25 10.8154 17.1534 10.6435 16.9815C10.4716 16.8096 10.375 16.5764 10.375 16.3333V16.1042C10.375 15.5572 10.5923 15.0326 10.9791 14.6458C11.3659 14.259 11.8905 14.0417 12.4375 14.0417V14.0417C12.9845 14.0417 13.5091 14.259 13.8959 14.6458C14.2827 15.0326 14.5 15.5572 14.5 16.1042V16.3333C14.5 16.5764 14.4034 16.8096 14.2315 16.9815C14.0596 17.1534 13.8264 17.25 13.5833 17.25V17.25Z" stroke="#4E2D2D" stroke-width="1.4" stroke-linecap="round" stroke-linejoin="round"/>
<path d="M17.25 8.99988L0.967743 8.99997" stroke="#4E2D2D" stroke-width="1.4" stroke-linecap="round" stroke-linejoin="round"/>
<path d="M9.22917 9H11.0625C11.3056 9 11.5388 9.09658 11.7107 9.26849C11.8826 9.44039 11.9792 9.67355 11.9792 9.91667C11.9792 10.4029 11.786 10.8692 11.4422 11.213C11.0984 11.5568 10.6321 11.75 10.1458 11.75C9.6596 11.75 9.19329 11.5568 8.84947 11.213C8.50565 10.8692 8.3125 10.4029 8.3125 9.91667C8.3125 9.67355 8.40908 9.44039 8.58099 9.26849C8.75289 9.09658 8.98605 9 9.22917 9V9Z" stroke="#4E2D2D" stroke-width="1.4" stroke-linecap="round" stroke-linejoin="round"/>
</svg>
