<svg width="18" height="18" viewBox="0 0 18 18" fill="none" xmlns="http://www.w3.org/2000/svg">
<path d="M5.92839 5.4658C6.05498 5.59239 6.05498 5.79764 5.92839 5.92424C5.80179 6.05083 5.59654 6.05083 5.46995 5.92424C5.34335 5.79764 5.34335 5.59239 5.46995 5.4658C5.59654 5.3392 5.80179 5.3392 5.92839 5.4658" stroke="#4E2D2D" stroke-width="1.3" stroke-linecap="round" stroke-linejoin="round"/>
<path d="M5.03667 1.52078L7.41083 1.49995C7.85333 1.49578 8.27917 1.67078 8.5925 1.98328L16.0125 9.40662C16.6633 10.0575 16.6633 11.1133 16.0125 11.7641L11.7675 16.0116C11.1167 16.6633 10.06 16.6633 9.40917 16.0116L1.98333 8.58328C1.67417 8.27412 1.5 7.85412 1.5 7.41578V5.07245C1.5 4.63412 1.67417 4.21412 1.98333 3.90495L3.88333 2.00412C4.19 1.69745 4.60417 1.52412 5.03667 1.52078V1.52078Z" stroke="#4E2D2D" stroke-width="1.3" stroke-linecap="round" stroke-linejoin="round"/>
</svg>
