<svg width="24" height="24" viewBox="0 0 24 24" fill="none" xmlns="http://www.w3.org/2000/svg">
<path d="M3.94794 9.20369L3.58919 7.86994C3.22794 6.53369 4.02169 5.15994 5.35919 4.80369L17.9129 1.45869C19.2379 1.10619 20.6129 1.89994 20.9704 3.22369L23.1629 11.3599C23.5229 12.6962 22.7279 14.0699 21.3929 14.4262L18.7504 15.1299" stroke="#FD9339" stroke-linecap="round" stroke-linejoin="round"/>
<rect x="0.75" y="9.5" width="17.5" height="5" fill="white"/>
<path d="M3.25 22.625H16.25C17.6312 22.625 18.75 21.5062 18.75 20.125V11.7037C18.75 10.3225 17.6312 9.20374 16.25 9.20374H3.25C1.86875 9.20374 0.75 10.3225 0.75 11.7037V20.125C0.75 21.5062 1.87 22.625 3.25 22.625Z" stroke="#FD9339" stroke-linecap="round" stroke-linejoin="round"/>
<path d="M0.75 14.3025H18.75" stroke="#FD9339" stroke-linecap="round" stroke-linejoin="round"/>
</svg>
