<svg width="16" height="16" viewBox="0 0 16 16" fill="none" xmlns="http://www.w3.org/2000/svg">
<path d="M2.63155 6.13582L2.39239 5.24665C2.15155 4.35582 2.68072 3.43998 3.57239 3.20248L11.9416 0.972483C12.8249 0.737483 13.7416 1.26665 13.9799 2.14915L15.4416 7.57332C15.6816 8.46415 15.1516 9.37998 14.2616 9.61748L12.4999 10.0866" fill="#FFF1DB"/>
<path d="M2.63155 6.13582L2.39239 5.24665C2.15155 4.35582 2.68072 3.43998 3.57239 3.20248L11.9416 0.972483C12.8249 0.737483 13.7416 1.26665 13.9799 2.14915L15.4416 7.57332C15.6816 8.46415 15.1516 9.37998 14.2616 9.61748L12.4999 10.0866" stroke="#FD9339" stroke-linecap="round" stroke-linejoin="round"/>
<rect x="0.5" y="6.33331" width="11.6667" height="3.33333" fill="white"/>
<path d="M2.16667 15.0834H10.8333C11.7542 15.0834 12.5 14.3375 12.5 13.4167V7.80253C12.5 6.8817 11.7542 6.13586 10.8333 6.13586H2.16667C1.24583 6.13586 0.5 6.8817 0.5 7.80253V13.4167C0.5 14.3375 1.24667 15.0834 2.16667 15.0834Z" stroke="#FD9339" stroke-linecap="round" stroke-linejoin="round"/>
<path d="M0.5 9.53497H12.5" stroke="#FD9339" stroke-linecap="round" stroke-linejoin="round"/>
</svg>
