<svg width="25" height="25" viewBox="0 0 25 25" fill="none" xmlns="http://www.w3.org/2000/svg">
<path d="M23.5 8.43717V21.1667C23.5 22.4558 22.4558 23.5 21.1667 23.5H4.83333C3.54417 23.5 2.5 22.4558 2.5 21.1667V8.43717C2.5 8.12217 2.56417 7.8095 2.68783 7.52017L4.22783 3.91633C4.59533 3.05767 5.43883 2.5 6.37333 2.5H19.6267C20.5612 2.5 21.4047 3.05767 21.7722 3.91633L23.3122 7.52017C23.4358 7.81067 23.5 8.12217 23.5 8.43717Z" stroke="#292929" stroke-width="1.2" stroke-linecap="round" stroke-linejoin="round"/>
<path d="M21.1667 6.10384V18.8333C21.1667 20.1225 20.1225 21.1667 18.8333 21.1667H2.49999C1.21082 21.1667 0.166656 20.1225 0.166656 18.8333V6.10384C0.166656 5.78884 0.230823 5.47617 0.35449 5.18684L1.89449 1.58301C2.26199 0.724339 3.10549 0.166672 4.03999 0.166672H17.2933C18.2278 0.166672 19.0713 0.724339 19.4388 1.58301L20.9788 5.18684C21.1025 5.47734 21.1667 5.78884 21.1667 6.10384Z" fill="#FD9339"/>
<path d="M23.5 8.43717V21.1667C23.5 22.4558 22.4558 23.5 21.1667 23.5H4.83333C3.54417 23.5 2.5 22.4558 2.5 21.1667V8.43717C2.5 8.12217 2.56417 7.8095 2.68783 7.52017L4.22783 3.91633C4.59533 3.05767 5.43883 2.5 6.37333 2.5H19.6267C20.5612 2.5 21.4047 3.05767 21.7722 3.91633L23.3122 7.52017C23.4358 7.81067 23.5 8.12217 23.5 8.43717Z" stroke="#292929" stroke-width="1.2" stroke-linecap="round" stroke-linejoin="round"/>
<path d="M15.3333 2.5L16.5 8.33333V12.0958C16.5 12.5952 16.0508 13 15.4967 13H10.5033C9.94917 13 9.5 12.5952 9.5 12.0958V8.33333L10.6667 2.5" fill="white"/>
<path d="M15.3333 2.5L16.5 8.33333V12.0958C16.5 12.5952 16.0508 13 15.4967 13H10.5033C9.94917 13 9.5 12.5952 9.5 12.0958V8.33333L10.6667 2.5" stroke="#292929" stroke-width="1.2" stroke-linecap="round" stroke-linejoin="round"/>
<path d="M2.5 8.33334H23.4883" stroke="#292929" stroke-width="1.2" stroke-linecap="round" stroke-linejoin="round"/>
<path d="M6 18.8333H8.33333" stroke="white" stroke-width="1.2" stroke-linecap="round" stroke-linejoin="round"/>
</svg>
