<svg width="20" height="19" viewBox="0 0 20 19" fill="none" xmlns="http://www.w3.org/2000/svg">
<path d="M17.3333 0.75V8.08333" stroke="#4E2D2D" stroke-width="1.4" stroke-linecap="round" stroke-linejoin="round"/>
<path d="M19.1667 2.58333L17.3333 0.75H2.66668H17.3333H2.66668L0.833344 2.58333" stroke="#4E2D2D" stroke-width="1.4" stroke-linecap="round" stroke-linejoin="round"/>
<path d="M2.66666 0.75V15.4167C2.66666 15.9029 2.85981 16.3692 3.20363 16.713C3.54744 17.0568 4.01376 17.25 4.49999 17.25H6.33332" stroke="#4E2D2D" stroke-width="1.4" stroke-linecap="round" stroke-linejoin="round"/>
<path d="M3.04861 0.75L4.64325 3.14195C4.81067 3.39308 5.0375 3.59899 5.3036 3.7414C5.56971 3.88382 5.86686 3.95833 6.16867 3.95833H13.8313C14.1331 3.95833 14.4303 3.88382 14.6964 3.7414C14.9625 3.59899 15.1893 3.39308 15.3568 3.14195L16.9514 0.75" stroke="#4E2D2D" stroke-width="1.4" stroke-linecap="round" stroke-linejoin="round"/>
<path d="M15.7191 18.1667H11.6143C11.4319 18.1667 11.2571 18.0942 11.1281 17.9653C10.9992 17.8364 10.9268 17.6615 10.9268 17.4792V16.6844C10.2259 16.2796 9.61908 15.7304 9.14654 15.0733C8.674 14.4162 8.34652 13.6662 8.18581 12.8729C8.1566 12.7384 8.15772 12.5991 8.18909 12.4651C8.22045 12.3312 8.28128 12.2058 8.36715 12.0983C8.45302 11.9908 8.56176 11.9037 8.68549 11.8434C8.80922 11.7832 8.94481 11.7513 9.08242 11.75H18.2509C18.3885 11.7513 18.5241 11.7832 18.6479 11.8434C18.7716 11.9037 18.8804 11.9907 18.9662 12.0983C19.0521 12.2058 19.113 12.3311 19.1443 12.4651C19.1757 12.5991 19.1768 12.7384 19.1476 12.8729C18.9869 13.6662 18.6594 14.4162 18.1868 15.0733C17.7143 15.7304 17.1075 16.2796 16.4066 16.6844V17.4792C16.4066 17.6615 16.3342 17.8364 16.2052 17.9653C16.0763 18.0942 15.9014 18.1667 15.7191 18.1667V18.1667Z" stroke="#4E2D2D" stroke-width="1.4" stroke-linecap="round" stroke-linejoin="round"/>
</svg>
