<svg width="24" height="24" viewBox="0 0 24 24" fill="none" xmlns="http://www.w3.org/2000/svg">
<path d="M22 10.75V20.75C22 21.413 21.7366 22.0489 21.2678 22.5178C20.7989 22.9866 20.163 23.25 19.5 23.25H4.5C3.83696 23.25 3.20107 22.9866 2.73223 22.5178C2.26339 22.0489 2 21.413 2 20.75V10.75" stroke="#FD9339" stroke-linecap="round" stroke-linejoin="round"/>
<path d="M14.5 10.75H21.375C21.8723 10.75 22.3492 10.5525 22.7008 10.2008C23.0525 9.8492 23.25 9.37228 23.25 8.875V7.625C23.25 7.12772 23.0525 6.65081 22.7008 6.29917C22.3492 5.94754 21.8723 5.75 21.375 5.75H2.625C2.12772 5.75 1.65081 5.94754 1.29917 6.29917C0.947544 6.65081 0.75 7.12772 0.75 7.625V8.875C0.75 9.37228 0.947544 9.8492 1.29917 10.2008C1.65081 10.5525 2.12772 10.75 2.625 10.75H9.5" stroke="#FD9339" stroke-linecap="round" stroke-linejoin="round"/>
<path d="M9.5 0.75C10.163 0.75 10.7989 1.01339 11.2678 1.48223C11.7366 1.95107 12 2.58696 12 3.25V5.75H9.5C8.83696 5.75 8.20107 5.48661 7.73223 5.01777C7.26339 4.54893 7 3.91304 7 3.25C7 2.58696 7.26339 1.95107 7.73223 1.48223C8.20107 1.01339 8.83696 0.75 9.5 0.75Z" stroke="#FD9339" stroke-linecap="round" stroke-linejoin="round"/>
<path d="M14.5 0.75C15.163 0.75 15.7989 1.01339 16.2678 1.48223C16.7366 1.95107 17 2.58696 17 3.25C17 3.91304 16.7366 4.54893 16.2678 5.01777C15.7989 5.48661 15.163 5.75 14.5 5.75H12V3.25C12 2.58696 12.2634 1.95107 12.7322 1.48223C13.2011 1.01339 13.837 0.75 14.5 0.75Z" stroke="#FD9339" stroke-linecap="round" stroke-linejoin="round"/>
<path d="M13.25 5.75H10.75C10.0596 5.75 9.5 6.30964 9.5 7V22C9.5 22.6904 10.0596 23.25 10.75 23.25H13.25C13.9404 23.25 14.5 22.6904 14.5 22V7C14.5 6.30964 13.9404 5.75 13.25 5.75Z" fill="white" stroke="#FD9339" stroke-linecap="round" stroke-linejoin="round"/>
</svg>
