<svg width="16" height="16" viewBox="0 0 16 16" fill="none" xmlns="http://www.w3.org/2000/svg">
<path d="M14.6666 7.16669V13.8334C14.6666 14.2754 14.491 14.6993 14.1784 15.0119C13.8659 15.3244 13.4419 15.5 12.9999 15.5H2.99992C2.55789 15.5 2.13397 15.3244 1.82141 15.0119C1.50885 14.6993 1.33325 14.2754 1.33325 13.8334V7.16669" fill="#FFF1DB"/>
<path d="M14.6666 7.16669V13.8334C14.6666 14.2754 14.491 14.6993 14.1784 15.0119C13.8659 15.3244 13.4419 15.5 12.9999 15.5H2.99992C2.55789 15.5 2.13397 15.3244 1.82141 15.0119C1.50885 14.6993 1.33325 14.2754 1.33325 13.8334V7.16669" stroke="#FD9339" stroke-linecap="round" stroke-linejoin="round"/>
<path d="M9.66667 7.16665H14.25C14.5815 7.16665 14.8995 7.03495 15.1339 6.80053C15.3683 6.56611 15.5 6.24817 15.5 5.91665V5.08331C15.5 4.75179 15.3683 4.43385 15.1339 4.19943C14.8995 3.96501 14.5815 3.83331 14.25 3.83331H1.75C1.41848 3.83331 1.10054 3.96501 0.866117 4.19943C0.631696 4.43385 0.5 4.75179 0.5 5.08331V5.91665C0.5 6.24817 0.631696 6.56611 0.866117 6.80053C1.10054 7.03495 1.41848 7.16665 1.75 7.16665H6.33333" stroke="#FD9339" stroke-linecap="round" stroke-linejoin="round"/>
<path d="M6.33341 0.5C6.77544 0.5 7.19936 0.675595 7.51193 0.988155C7.82449 1.30072 8.00008 1.72464 8.00008 2.16667V3.83333H6.33341C5.89139 3.83333 5.46746 3.65774 5.1549 3.34518C4.84234 3.03262 4.66675 2.60869 4.66675 2.16667C4.66675 1.72464 4.84234 1.30072 5.1549 0.988155C5.46746 0.675595 5.89139 0.5 6.33341 0.5Z" stroke="#FD9339" stroke-linecap="round" stroke-linejoin="round"/>
<path d="M9.66667 0.5C10.1087 0.5 10.5326 0.675595 10.8452 0.988155C11.1577 1.30072 11.3333 1.72464 11.3333 2.16667C11.3333 2.60869 11.1577 3.03262 10.8452 3.34518C10.5326 3.65774 10.1087 3.83333 9.66667 3.83333H8V2.16667C8 1.72464 8.1756 1.30072 8.48816 0.988155C8.80072 0.675595 9.22464 0.5 9.66667 0.5Z" stroke="#FD9339" stroke-linecap="round" stroke-linejoin="round"/>
<path d="M8.83325 3.83331H7.16659C6.70635 3.83331 6.33325 4.20641 6.33325 4.66665V14.6666C6.33325 15.1269 6.70635 15.5 7.16659 15.5H8.83325C9.29349 15.5 9.66659 15.1269 9.66659 14.6666V4.66665C9.66659 4.20641 9.29349 3.83331 8.83325 3.83331Z" fill="white" stroke="#FD9339" stroke-linecap="round" stroke-linejoin="round"/>
</svg>
