<svg width="14" height="18" viewBox="0 0 14 18" fill="none" xmlns="http://www.w3.org/2000/svg">
<path d="M0.699753 7.20792V7.05025C0.699753 3.57058 3.52034 0.75 7 0.75C10.4797 0.75 13.3003 3.57058 13.3003 7.05025V7.20792C13.3003 10.3805 9.28342 15.1563 7.66459 16.953C7.308 17.349 6.692 17.349 6.33542 16.953C4.71659 15.1563 0.699753 10.3805 0.699753 7.20792V7.20792Z" stroke="#292929" stroke-linecap="round" stroke-linejoin="round"/>
<path d="M5.16663 7.12531C5.16663 8.13822 5.98704 8.95864 6.99996 8.95864C8.01288 8.95864 8.83329 8.13822 8.83329 7.12531V7.09139C8.83329 6.07847 8.01288 5.25806 6.99996 5.25806C5.98704 5.25806 5.16663 6.07847 5.16663 7.09139" stroke="#292929" stroke-linecap="round" stroke-linejoin="round"/>
</svg>
