<svg width="18" height="18" viewBox="0 0 18 18" fill="none" xmlns="http://www.w3.org/2000/svg">
<path d="M1.5 9H10.6667" stroke="#4E2D2D" stroke-width="1.3" stroke-linecap="round" stroke-linejoin="round"/>
<path d="M8.16602 6.5L10.666 9L8.16602 11.5" stroke="#4E2D2D" stroke-width="1.3" stroke-linecap="round" stroke-linejoin="round"/>
<path d="M4 6.61413V5.16663C4.00023 4.78147 4.13385 4.40829 4.37814 4.11052C4.62244 3.81275 4.96232 3.60878 5.34 3.53329L14.5067 1.52829C14.7596 1.49908 15.0158 1.52419 15.2582 1.60195C15.5006 1.67971 15.7236 1.80833 15.9123 1.9792C16.101 2.15007 16.251 2.35926 16.3524 2.59278C16.4537 2.82629 16.5041 3.07876 16.5 3.33329V14.8333C16.5001 15.0761 16.4472 15.3161 16.3448 15.5363C16.2425 15.7566 16.0933 15.9518 15.9076 16.1083C15.722 16.2648 15.5043 16.3789 15.27 16.4425C15.0356 16.5062 14.7902 16.5178 14.5508 16.4766L5.38417 14.9C4.99668 14.8333 4.64523 14.6318 4.39193 14.3311C4.13864 14.0304 3.99982 13.6498 4 13.2566V11.4758" stroke="#4E2D2D" stroke-width="1.3" stroke-linecap="round" stroke-linejoin="round"/>
</svg>
