<svg width="22" height="22" viewBox="0 0 22 22" fill="none" xmlns="http://www.w3.org/2000/svg">
<path d="M21.8182 0.0982933H0V21.9027H21.8182V0.0982933Z" fill="#492F2E"/>
<path d="M18.6091 6.97215C16.3793 4.93124 14.1704 2.89033 11.9198 0.870251C11.6073 0.599518 11.2113 0.328785 10.8154 0.266309C8.64816 -0.171029 6.66848 0.162181 5.04306 1.8074C4.85551 1.97401 4.70964 2.18226 4.58461 2.36969C4.45957 2.5363 4.37622 2.74455 4.23035 2.99446C4.56377 3.09859 4.83467 3.20272 5.10557 3.30685C7.56455 4.1607 10.0235 5.01455 12.4825 5.84757C12.9201 5.99335 13.2119 6.32656 13.5036 6.72225C13.6495 6.90968 14.1496 7.07628 14.3788 7.03463C15.004 6.88885 15.4833 6.90968 16.0668 7.11793C17.4004 7.5761 18.7133 8.03426 20.1095 8.38829C19.6093 7.9093 19.1092 7.43032 18.6091 6.97215ZM10.9404 2.64043C10.8154 3.01529 10.086 3.09859 9.33584 2.82786C8.58565 2.55712 8.08552 2.03648 8.21055 1.66162C8.33558 1.28676 9.06494 1.20346 9.81513 1.47419C10.5653 1.74493 11.0655 2.26557 10.9404 2.64043ZM15.3374 5.55601C15.2332 5.84757 14.7122 5.9517 14.1913 5.76427C13.6703 5.57684 13.3369 5.18115 13.4411 4.88959C13.5453 4.59803 14.0662 4.49391 14.5872 4.68134C15.1082 4.84794 15.4416 5.24363 15.3374 5.55601Z" fill="#FBE9AD"/>
<path d="M21.2343 9.92957C19.3379 9.26315 17.4416 8.61756 15.5453 7.95114C15.1285 7.80536 14.8368 7.93031 14.3783 8.05527C13.8574 8.20105 13.253 7.99279 12.8779 7.5971C12.6904 7.38885 12.5237 6.93069 12.2736 6.82656C9.62709 5.88941 6.95973 4.97308 4.29237 4.05675C4.16733 4.0151 4.0423 3.99428 3.87559 3.97345C3.72972 4.41079 3.58385 4.8273 3.43798 5.26464C4.70914 6.49335 4.47991 8.57591 2.14597 9.01325C1.85423 9.88792 1.54165 10.7834 1.24991 11.6997C0.874808 12.8452 0.478872 13.9906 0.103774 15.136C-0.0837745 15.7399 -0.0420969 15.844 0.541388 16.0731C1.02068 16.2606 1.52081 16.4063 2.0001 16.5729C4.7925 17.5309 7.58489 18.5097 10.3773 19.4677C10.6065 19.551 10.8357 19.6343 11.0233 19.6968C12.9613 18.2806 14.2533 18.7388 14.7743 20.988C15.587 21.2795 16.4622 21.5711 17.3166 21.8626C17.6917 21.9876 17.9418 21.8626 18.0668 21.467C18.2752 20.8005 18.5252 20.1133 18.7545 19.4052C17.8167 18.8013 17.2124 18.0099 17.5875 16.8645C17.9626 15.7191 18.9003 15.4067 20.0048 15.5317C20.6091 13.7407 21.1926 11.9705 21.7969 10.1587C21.6094 10.117 21.4218 10.0129 21.2343 9.92957ZM4.20901 14.8652C4.16733 14.9694 4.10482 15.0735 4.02146 15.1568C3.7714 15.4067 3.37546 15.5317 3.0212 15.4275C2.58359 15.3026 2.31268 14.8236 2.35436 14.3654C2.35436 14.3029 2.3752 14.2405 2.39604 14.178C2.41688 14.0739 2.47939 13.9906 2.56275 13.9073C2.56275 13.8864 2.58359 13.8864 2.58359 13.8656C2.70862 13.7407 2.85449 13.6574 3.0212 13.5949C3.04204 13.5949 3.08372 13.5741 3.10456 13.5741C3.2921 13.5324 3.47965 13.5324 3.64636 13.5949C3.7714 13.6365 3.87559 13.699 3.95894 13.8031C4.00062 13.8448 4.0423 13.8864 4.08398 13.9489C4.18817 14.1155 4.25069 14.3029 4.27153 14.4904C4.27153 14.6153 4.25069 14.7403 4.20901 14.8652ZM10.3981 11.5748C10.1481 11.7414 9.85631 11.8455 9.54373 11.8664C9.52289 11.8664 9.50206 11.8664 9.50206 11.8664C9.37702 11.8664 9.25199 11.8664 9.10612 11.8455C8.98109 11.8247 8.83521 11.8039 8.71018 11.7414C8.58515 11.6997 8.48096 11.6373 8.37676 11.5748C7.85579 11.2624 7.52237 10.6793 7.45986 10.0545C7.43902 9.80462 7.45986 9.55471 7.54321 9.32563C7.62657 9.09655 7.73076 8.90912 7.85579 8.72169C7.87663 8.68004 7.89747 8.63839 7.91831 8.61756C8.0225 8.49261 8.16838 8.36765 8.29341 8.28435C8.3976 8.20105 8.52263 8.13857 8.62683 8.09692C9.0436 7.93031 9.50206 7.88866 9.98135 8.05527C10.7315 8.326 11.2108 8.99242 11.2525 9.74214C11.2733 9.99205 11.2317 10.2628 11.1483 10.5127C11.1066 10.6376 11.0441 10.7626 10.9816 10.8875C10.8566 11.1999 10.6482 11.4082 10.3981 11.5748ZM12.1277 16.8228C11.4401 16.8228 10.8774 16.2606 10.8774 15.5733C10.8774 14.8861 11.4401 14.3238 12.1277 14.3238C12.8154 14.3238 13.3781 14.8861 13.3781 15.5733C13.3781 16.2606 12.8154 16.8228 12.1277 16.8228ZM17.5041 12.6994C17.4416 12.9285 17.2958 13.1159 17.0874 13.2408C17.0457 13.2617 17.004 13.3033 16.9415 13.3241C16.7331 13.4074 16.5039 13.4491 16.2955 13.3866C15.8579 13.2408 15.587 12.8035 15.6286 12.3453C15.6286 12.3245 15.6286 12.3245 15.6286 12.3037C15.6286 12.262 15.6495 12.1996 15.6703 12.1579C15.712 12.033 15.7745 11.908 15.8579 11.8247C15.9829 11.6789 16.1496 11.5748 16.3372 11.5331C16.5247 11.4915 16.7123 11.4915 16.8998 11.554C17.0248 11.5956 17.129 11.6581 17.2124 11.7414C17.4416 11.9497 17.5667 12.2412 17.5458 12.5536C17.525 12.5744 17.525 12.6369 17.5041 12.6994Z" fill="#FBE9AD"/>
</svg>
