<svg width="16" height="16" viewBox="0 0 16 16" fill="none" xmlns="http://www.w3.org/2000/svg">
<path d="M3.105 9.5L0.5 12.1667L2.58333 13.4167L3.83333 15.5L7.0825 12.0875" stroke="#FD9339" stroke-linecap="round" stroke-linejoin="round"/>
<path d="M8.91748 12.0875L12.1666 15.5L13.4166 13.4167L15.5 12.1667L12.895 9.5" stroke="#FD9339" stroke-linecap="round" stroke-linejoin="round"/>
<path d="M12.1249 2.20854C14.4029 4.4866 14.4029 8.18006 12.1249 10.4581C9.84681 12.7362 6.15335 12.7362 3.87529 10.4581C1.59723 8.18006 1.59723 4.4866 3.87529 2.20854C6.15335 -0.0695147 9.84681 -0.0695147 12.1249 2.20854Z" fill="#FFF1DB" stroke="#FD9339" stroke-linecap="round" stroke-linejoin="round"/>
<path d="M7.99918 8.48668L9.49668 9.27335C9.78834 9.42668 10.1292 9.17918 10.0733 8.85418L9.78751 7.18668L10.9992 6.00668C11.235 5.77668 11.105 5.37585 10.7792 5.32835L9.10501 5.08502L8.35668 3.56752C8.21084 3.27168 7.79001 3.27168 7.64418 3.56752L6.89584 5.08502L5.22084 5.32918C4.89501 5.37668 4.76501 5.77752 5.00084 6.00752L6.21251 7.18752L5.92668 8.85502C5.87084 9.18002 6.21168 9.42752 6.50334 9.27418L8.00084 8.48752H7.99918V8.48668Z" fill="white" stroke="#FD9339" stroke-linecap="round" stroke-linejoin="round"/>
</svg>
