<svg width="24" height="24" viewBox="0 0 24 24" fill="none" xmlns="http://www.w3.org/2000/svg">
<path d="M4.6575 14.25L0.75 18.25L3.875 20.125L5.75 23.25L10.6237 18.1313" stroke="#FD9339" stroke-linecap="round" stroke-linejoin="round"/>
<path d="M13.377 18.1313L18.2507 23.25L20.1257 20.125L23.2507 18.25L19.3432 14.25" stroke="#FD9339" stroke-linecap="round" stroke-linejoin="round"/>
<path d="M18.1872 3.31282C21.6043 6.7299 21.6043 12.2701 18.1872 15.6872C14.7701 19.1043 9.2299 19.1043 5.81282 15.6872C2.39573 12.2701 2.39573 6.7299 5.81282 3.31282C9.2299 -0.104272 14.7701 -0.104272 18.1872 3.31282Z" fill="white" stroke="#FD9339" stroke-linecap="round" stroke-linejoin="round"/>
<path d="M11.9985 12.73L14.2448 13.91C14.6823 14.14 15.1935 13.7687 15.1098 13.2812L14.681 10.78L16.4985 9.01C16.8523 8.665 16.6573 8.06374 16.1685 7.99249L13.6573 7.6275L12.5348 5.35125C12.316 4.9075 11.6848 4.9075 11.466 5.35125L10.3435 7.6275L7.83102 7.99375C7.34227 8.065 7.14727 8.66625 7.50102 9.01125L9.31852 10.7812L8.88977 13.2825C8.80602 13.77 9.31727 14.1412 9.75477 13.9112L12.001 12.7312H11.9985V12.73Z" fill="#FEF5E2" stroke="#FD9339" stroke-linecap="round" stroke-linejoin="round"/>
</svg>
