<svg width="16" height="18" viewBox="0 0 16 18" fill="none" xmlns="http://www.w3.org/2000/svg">
<path d="M13.0006 16.5H3.00065C2.78176 16.5001 2.56501 16.457 2.36277 16.3733C2.16054 16.2896 1.97678 16.1668 1.82201 16.012C1.66723 15.8572 1.54447 15.6735 1.46073 15.4713C1.37699 15.269 1.33392 15.0523 1.33398 14.8334V6.08337C1.33411 5.75189 1.46584 5.43402 1.70024 5.19962C1.93463 4.96523 2.2525 4.8335 2.58398 4.83337H13.4173C13.7488 4.8335 14.0667 4.96523 14.3011 5.19962C14.5355 5.43402 14.6672 5.75189 14.6673 6.08337V14.8334C14.6674 15.0523 14.6243 15.269 14.5406 15.4713C14.4568 15.6735 14.3341 15.8572 14.1793 16.012C14.0245 16.1668 13.8408 16.2896 13.6385 16.3733C13.4363 16.457 13.2195 16.5001 13.0006 16.5V16.5Z" stroke="#4E2D2D" stroke-width="1.3" stroke-linecap="round" stroke-linejoin="round"/>
<path d="M9.29584 10.0198L7.67501 11.6406L6.70312 10.6677" stroke="#4E2D2D" stroke-width="1.3" stroke-linecap="round" stroke-linejoin="round"/>
<path d="M4.66602 4.83333V4.625C4.66604 3.7962 4.99528 3.00136 5.58133 2.41531C6.16738 1.82927 6.96222 1.50002 7.79102 1.5H8.20768C9.03648 1.50002 9.83132 1.82927 10.4174 2.41531C11.0034 3.00136 11.3327 3.7962 11.3327 4.625V4.625V4.83333" stroke="#4E2D2D" stroke-width="1.3" stroke-linecap="round" stroke-linejoin="round"/>
</svg>
