<svg width="26" height="25" viewBox="0 0 26 25" fill="none" xmlns="http://www.w3.org/2000/svg">
<rect width="21" height="21" rx="5" fill="#FD9339"/>
<path d="M23.5 11.8333V8.33333C23.5 6.78624 22.8854 5.30251 21.7915 4.20854C20.6975 3.11458 19.2138 2.5 17.6667 2.5H8.33333C6.78624 2.5 5.30251 3.11458 4.20854 4.20854C3.11458 5.30251 2.5 6.78624 2.5 8.33333V17.6667C2.5 19.2138 3.11458 20.6975 4.20854 21.7915C5.30251 22.8854 6.78624 23.5 8.33333 23.5H13" stroke="#292929" stroke-width="1.2" stroke-linecap="round" stroke-linejoin="round"/>
<path d="M13 15.3333H10.6666C10.0478 15.3333 9.45432 15.5791 9.01673 16.0167C8.57915 16.4543 8.33331 17.0478 8.33331 17.6666V17.6666" stroke="white" stroke-width="1.2" stroke-linecap="round" stroke-linejoin="round"/>
<path d="M13 12.4167C14.4497 12.4167 15.625 11.2415 15.625 9.79172C15.625 8.34197 14.4497 7.16672 13 7.16672C11.5503 7.16672 10.375 8.34197 10.375 9.79172C10.375 11.2415 11.5503 12.4167 13 12.4167Z" fill="white" stroke="#292929" stroke-width="1.2" stroke-linecap="round" stroke-linejoin="round"/>
<path d="M16.5 19.9939C16.5 21.958 18.9714 23.4118 20.0708 23.9616C20.23 24.0417 20.4056 24.0834 20.5838 24.0833C20.7619 24.0832 20.9376 24.0414 21.0966 23.9612C22.1964 23.411 24.6666 21.9606 24.6666 19.9939V17.1974C24.6621 17.0501 24.6032 16.9096 24.5013 16.8031C24.3993 16.6966 24.2616 16.6316 24.1146 16.6206C23.0807 16.5257 22.091 16.1556 21.2485 15.5488C21.055 15.4087 20.8222 15.3333 20.5833 15.3333C20.3444 15.3333 20.1116 15.4087 19.9181 15.5488C19.0756 16.1556 18.0859 16.5257 17.052 16.6206C16.905 16.6316 16.7673 16.6966 16.6654 16.8031C16.5634 16.9096 16.5045 17.0501 16.5 17.1974V19.9939Z" fill="white" stroke="#292929" stroke-width="1.2" stroke-linecap="round" stroke-linejoin="round"/>
</svg>
