<svg width="18" height="18" viewBox="0 0 18 18" fill="none" xmlns="http://www.w3.org/2000/svg">
<path d="M14.3033 3.6967C17.2322 6.62563 17.2322 11.3744 14.3033 14.3033C11.3743 17.2322 6.62562 17.2322 3.6967 14.3033C0.767767 11.3743 0.767767 6.62562 3.6967 3.6967C6.62563 0.767767 11.3744 0.767767 14.3033 3.6967" stroke="#4E2D2D" stroke-width="1.3" stroke-linecap="round" stroke-linejoin="round"/>
<path d="M13.4231 15.0475C13.1031 13.5142 11.2548 12.3334 9.00063 12.3334C6.74646 12.3334 4.89812 13.5142 4.57812 15.0475" stroke="#4E2D2D" stroke-width="1.3" stroke-linecap="round" stroke-linejoin="round"/>
<path d="M10.7678 5.56561C11.7441 6.54191 11.7441 8.12483 10.7678 9.10114C9.79146 10.0774 8.20854 10.0774 7.23223 9.10114C6.25592 8.12483 6.25592 6.54191 7.23223 5.56561C8.20854 4.5893 9.79146 4.5893 10.7678 5.56561Z" stroke="#4E2D2D" stroke-width="1.3" stroke-linecap="round" stroke-linejoin="round"/>
</svg>
