<svg width="24" height="18" viewBox="0 0 24 18" fill="none" xmlns="http://www.w3.org/2000/svg">
<path d="M23.8406 3.975C23.8406 1.86563 22.289 0.16875 20.3718 0.16875C17.7749 0.0468749 15.1265 0 12.4218 0H11.5781C8.87805 0 6.22493 0.0468749 3.62805 0.16875C1.71555 0.16875 0.163989 1.875 0.163989 3.98438C0.0468014 5.65312 -0.00476108 7.32188 -7.35804e-05 8.99063C-0.00476108 10.6594 0.0468014 12.3281 0.159301 14.0016C0.159301 16.1109 1.71086 17.8219 3.62336 17.8219C6.35149 17.9484 9.14993 18.0047 11.9952 18C14.8452 18.0094 17.6343 17.9531 20.3671 17.8219C22.2843 17.8219 23.8359 16.1109 23.8359 14.0016C23.9484 12.3281 23.9999 10.6594 23.9952 8.98594C24.0046 7.31719 23.9531 5.64844 23.8406 3.975V3.975ZM9.70305 13.5891V4.37812L16.4999 8.98125L9.70305 13.5891V13.5891Z" fill="#4E2D2D"/>
</svg>
